<?xml version="1.0" encoding="utf-8"?><!DOCTYPE svg PUBLIC "-//W3C//DTD SVG 1.1//EN" "http://www.w3.org/Graphics/SVG/1.1/DTD/svg11.dtd"><svg version="1.1" xmlns="http://www.w3.org/2000/svg" xmlns:xlink="http://www.w3.org/1999/xlink" x="0px" y="0px" viewBox="0 0 100 108.14875" enable-background="new 0 0 100 86.519" xml:space="preserve"><g><path fill="#010101" d="M78.913,55.799c-2.272-1.78-3.696-4.55-3.696-7.538v-1.307c0-3.836,2.274-7.152,5.544-8.676V5.218
		C80.761,2.333,78.426,0,75.543,0H24.672c-2.879,0-5.214,2.333-5.214,5.218v33.455c2.856,1.662,4.784,4.749,4.784,8.281v1.307
		c0,2.988-1.424,5.758-3.698,7.538v2.163C21.499,59.197,22.994,60,24.672,60h50.871c1.288,0,2.463-0.467,3.37-1.235V55.799z"/><path fill="#010101" d="M80.761,80.867c0,2.887-2.335,5.219-5.218,5.219H24.672c-2.879,0-5.214-2.332-5.214-5.219V70.434
		c0-2.882,2.335-5.218,5.214-5.218h50.871c2.883,0,5.218,2.336,5.218,5.218V80.867z"/><path fill="#010101" d="M20.435,47.39c0-2.882-2.335-5.218-5.215-5.218H5.218C2.339,42.172,0,44.508,0,47.39v1.304
		c0,2.37,1.577,4.365,3.739,5.003c-0.026,0.213-0.046,0.429-0.046,0.65v26.954c0,2.882,2.336,5.218,5.218,5.218h2.608
		c2.883,0,5.219-2.336,5.219-5.218V54.347c0-0.222-0.021-0.438-0.045-0.65c2.161-0.638,3.738-2.633,3.738-5.003V47.39H20.435z"/><path fill="#010101" d="M100,48.261v-1.307c0-2.88-2.338-5.215-5.218-5.215H84.781c-2.88,0-5.215,2.335-5.215,5.215v1.307
		c0,2.367,1.578,4.363,3.736,5.002c-0.024,0.214-0.045,0.429-0.045,0.646v26.956c0,2.885,2.336,5.221,5.22,5.221h2.608
		c2.88,0,5.216-2.336,5.216-5.221V53.912c0-0.221-0.019-0.436-0.046-0.649C98.424,52.624,100,50.628,100,48.261z"/></g><text x="0" y="101.519" fill="#000000" font-size="5px" font-weight="bold" font-family="'Helvetica Neue', Helvetica, Arial-Unicode, Arial, Sans-serif">Created by Maximilian Becker</text><text x="0" y="106.519" fill="#000000" font-size="5px" font-weight="bold" font-family="'Helvetica Neue', Helvetica, Arial-Unicode, Arial, Sans-serif">from the Noun Project</text></svg>