<svg xmlns="http://www.w3.org/2000/svg" viewBox="0 0 48 60" x="0px" y="0px"><path d="M40.82,26.92A5,5,0,0,0,36.88,25H22.81c-.54-2.65-2.32-11.26-3.25-16a5,5,0,0,0-4.9-4H6a1,1,0,0,0-.75.33A1,1,0,0,0,5,6.11l4,36A1,1,0,0,0,10,43H38a1,1,0,0,0,1-.76l2.76-11A5,5,0,0,0,40.82,26.92Zm-1,3.81L37.22,41H10.9L7.12,7h7.54A3,3,0,0,1,17.6,9.42C18.7,15,21,26.09,21,26.2a1,1,0,0,0,1,.8H36.88a3,3,0,0,1,2.36,1.15A3,3,0,0,1,39.79,30.73Z"/><text x="0" y="63" fill="#000000" font-size="5px" font-weight="bold" font-family="'Helvetica Neue', Helvetica, Arial-Unicode, Arial, Sans-serif">Created by Martin Sturk</text><text x="0" y="68" fill="#000000" font-size="5px" font-weight="bold" font-family="'Helvetica Neue', Helvetica, Arial-Unicode, Arial, Sans-serif">from the Noun Project</text></svg>